<?xml version="1.0" encoding="iso-8859-1"?>
<!-- Generator: Adobe Illustrator 19.0.0, SVG Export Plug-In . SVG Version: 6.00 Build 0)  -->
<svg version="1.1" id="Layer_1" xmlns="http://www.w3.org/2000/svg" xmlns:xlink="http://www.w3.org/1999/xlink" x="0px" y="0px"
	 viewBox="0 0 1280 800" style="enable-background:new 0 0 1280 800;" xml:space="preserve">
<pattern  y="-1644" width="331.47" height="309.286" patternUnits="userSpaceOnUse" id="New_Pattern" viewBox="82.867 -386.607 331.47 309.286" style="overflow:visible;">
	<g id="XMLID_192_">
		<polygon id="XMLID_237_" style="fill:none;" points="82.867,-386.607 414.338,-386.607 414.338,-77.321 82.867,-77.321 		"/>
		<path id="XMLID_233_" style="fill:#214A78;" d="M348.665-77.321v-97.21c0-1.2-0.97-2.17-2.17-2.17h-7.97
			c-0.9,0-1.71-0.56-2.03-1.39l-3.46-9.05l-0.06-0.18l-1.42-4.97c-0.34-1.18,0.37-2.41,1.57-2.7l152.28-36.91
			c1.36-0.33,2.66,0.68,2.68,2.07l0.31,22.12c0.01,1.06,0.51,2.59-0.5,2.91l-5.46,0.02c-0.82,0-1.55,0.52-1.82,1.29
			c-0.62,1.8-0.84,4.92-0.78,5.96c0,0.06,0.1,0.52,0.19,1c0.13,0.65,0.66,1.14,1.32,1.24l0.98,0.13c0.3,1.32,0.3-0.04,0.3,1.32
			l0.04,101.45c0,1.2,0.97,2.17,2.18,2.17l10.18-0.04c1.2-0.01,2.18,0.96,2.18,2.16v8.61c0,1.2-0.98,2.17-2.17,2.17
			 M400.675-176.091c0-1.11-0.84-2.04-1.94-2.16l-0.57-0.06c-1.02-0.11-1.83-0.92-1.92-1.95l-0.7-7.14
			c-0.13-1.32-1.39-2.22-2.68-1.9l-7.75,1.92c-0.96,0.23-1.63,1.08-1.65,2.07l-0.15,8.77c-0.01,0.98-0.69,1.83-1.64,2.07
			c-0.97,0.23-1.65,1.1-1.65,2.1v79.75c0,1.19,0.95,2.16,2.14,2.17l16.31,0.17c1.21,0.02,2.2-0.96,2.2-2.17V-176.091z
			 M452.345-187.872c0-1.01-0.71-1.89-1.7-2.11l-1.3-0.29c-0.95-0.21-1.65-1.03-1.7-2.01l0.36-8c-0.08-1.37-1.42-1.8-2.76-1.45
			l-8.91,1.62c-0.91,0.24-1.53,1.89-1.58,2.83l0.01,9.25v0.03c-0.07,1.07-1.07,1.85-2.15,1.83l-0.9-0.03
			c-0.81,0.34-0.36,5.38-0.36,6.25l0.41,87.55c0,1.2,0.97,2.17,2.16,2.17l16.25,0.02c1.19,0,2.17-0.97,2.17-2.17V-187.872z"/>
		<path id="XMLID_229_" style="fill:#214A78;" d="M182.93,0v-97.21c0-1.2-0.97-2.17-2.17-2.17h-7.97c-0.9,0-1.71-0.56-2.03-1.39
			l-3.46-9.05l-0.06-0.18l-1.42-4.97c-0.34-1.18,0.37-2.41,1.57-2.7l152.28-36.91c1.36-0.33,2.66,0.68,2.68,2.07l0.31,22.12
			c0.01,1.06,0.51,2.59-0.5,2.91l-5.46,0.02c-0.82,0-1.55,0.52-1.82,1.29c-0.62,1.8-0.84,4.92-0.78,5.96c0,0.06,0.1,0.52,0.19,1
			c0.13,0.65,0.66,1.14,1.32,1.24l0.98,0.13c0.3,1.32,0.3-0.04,0.3,1.32l0.04,101.45c0,1.2,0.97,2.17,2.18,2.17l10.18-0.04
			c1.2-0.01,2.18,0.96,2.18,2.16v8.61c0,1.2-0.98,2.17-2.17,2.17 M234.94-98.77c0-1.11-0.84-2.04-1.94-2.16l-0.57-0.06
			c-1.02-0.11-1.83-0.92-1.92-1.95l-0.7-7.14c-0.13-1.32-1.39-2.22-2.68-1.9l-7.75,1.92c-0.96,0.23-1.63,1.08-1.65,2.07l-0.15,8.77
			c-0.01,0.98-0.69,1.83-1.64,2.07c-0.97,0.23-1.65,1.1-1.65,2.1v79.75c0,1.19,0.95,2.16,2.14,2.17l16.31,0.17
			c1.21,0.02,2.2-0.96,2.2-2.17V-98.77z M286.61-110.55c0-1.01-0.71-1.89-1.7-2.11l-1.3-0.29c-0.95-0.21-1.65-1.03-1.7-2.01l0.36-8
			c-0.08-1.37-1.42-1.8-2.76-1.45l-8.91,1.62c-0.91,0.24-1.53,1.89-1.58,2.83l0.01,9.25v0.03c-0.07,1.07-1.07,1.85-2.15,1.83
			l-0.9-0.03c-0.81,0.34-0.36,5.38-0.36,6.25l0.41,87.55c0,1.2,0.97,2.17,2.16,2.17l16.25,0.02c1.19,0,2.17-0.97,2.17-2.17V-110.55z
			"/>
		<path id="XMLID_213_" style="fill:#214A78;" d="M17.195-77.321v-97.21c0-1.2-0.97-2.17-2.17-2.17h-7.97
			c-0.9,0-1.71-0.56-2.03-1.39l-3.46-9.05l-0.06-0.18l-1.42-4.97c-0.34-1.18,0.37-2.41,1.57-2.7l152.28-36.91
			c1.36-0.33,2.66,0.68,2.68,2.07l0.31,22.12c0.01,1.06,0.51,2.59-0.5,2.91l-5.46,0.02c-0.82,0-1.55,0.52-1.82,1.29
			c-0.62,1.8-0.84,4.92-0.78,5.96c0,0.06,0.1,0.52,0.19,1c0.13,0.65,0.66,1.14,1.32,1.24l0.98,0.13c0.3,1.32,0.3-0.04,0.3,1.32
			l0.04,101.45c0,1.2,0.97,2.17,2.18,2.17l10.18-0.04c1.2-0.01,2.18,0.96,2.18,2.16v8.61c0,1.2-0.98,2.17-2.17,2.17 M69.205-176.091
			c0-1.11-0.84-2.04-1.94-2.16l-0.57-0.06c-1.02-0.11-1.83-0.92-1.92-1.95l-0.7-7.14c-0.13-1.32-1.39-2.22-2.68-1.9l-7.75,1.92
			c-0.96,0.23-1.63,1.08-1.65,2.07l-0.15,8.77c-0.01,0.98-0.69,1.83-1.64,2.07c-0.97,0.23-1.65,1.1-1.65,2.1v79.75
			c0,1.19,0.95,2.16,2.14,2.17l16.31,0.17c1.21,0.02,2.2-0.96,2.2-2.17V-176.091z M120.875-187.872c0-1.01-0.71-1.89-1.7-2.11
			l-1.3-0.29c-0.95-0.21-1.65-1.03-1.7-2.01l0.36-8c-0.08-1.37-1.42-1.8-2.76-1.45l-8.91,1.62c-0.91,0.24-1.53,1.89-1.58,2.83
			l0.01,9.25v0.03c-0.07,1.07-1.07,1.85-2.15,1.83l-0.9-0.03c-0.81,0.34-0.36,5.38-0.36,6.25l0.41,87.55c0,1.2,0.97,2.17,2.16,2.17
			l16.25,0.02c1.19,0,2.17-0.97,2.17-2.17V-187.872z"/>
		<path id="XMLID_209_" style="fill:#214A78;" d="M348.665-231.964v-97.21c0-1.2-0.97-2.17-2.17-2.17h-7.97
			c-0.9,0-1.71-0.56-2.03-1.39l-3.46-9.05l-0.06-0.18l-1.42-4.97c-0.34-1.18,0.37-2.41,1.57-2.7l152.28-36.91
			c1.36-0.33,2.66,0.68,2.68,2.07l0.31,22.12c0.01,1.06,0.51,2.59-0.5,2.91l-5.46,0.02c-0.82,0-1.55,0.52-1.82,1.29
			c-0.62,1.8-0.84,4.92-0.78,5.96c0,0.06,0.1,0.52,0.19,1c0.13,0.65,0.66,1.14,1.32,1.24l0.98,0.13c0.3,1.32,0.3-0.04,0.3,1.32
			l0.04,101.45c0,1.2,0.97,2.17,2.18,2.17l10.18-0.04c1.2-0.01,2.18,0.96,2.18,2.16v8.61c0,1.2-0.98,2.17-2.17,2.17
			 M400.675-330.734c0-1.11-0.84-2.04-1.94-2.16l-0.57-0.06c-1.02-0.11-1.83-0.92-1.92-1.95l-0.7-7.14
			c-0.13-1.32-1.39-2.22-2.68-1.9l-7.75,1.92c-0.96,0.23-1.63,1.08-1.65,2.07l-0.15,8.77c-0.01,0.98-0.69,1.83-1.64,2.07
			c-0.97,0.23-1.65,1.1-1.65,2.1v79.75c0,1.19,0.95,2.16,2.14,2.17l16.31,0.17c1.21,0.02,2.2-0.96,2.2-2.17V-330.734z
			 M452.345-342.514c0-1.01-0.71-1.89-1.7-2.11l-1.3-0.29c-0.95-0.21-1.65-1.03-1.7-2.01l0.36-8c-0.08-1.37-1.42-1.8-2.76-1.45
			l-8.91,1.62c-0.91,0.24-1.53,1.89-1.58,2.83l0.01,9.25v0.03c-0.07,1.07-1.07,1.85-2.15,1.83l-0.9-0.03
			c-0.81,0.34-0.36,5.38-0.36,6.25l0.41,87.55c0,1.2,0.97,2.17,2.16,2.17l16.25,0.02c1.19,0,2.17-0.97,2.17-2.17V-342.514z"/>
		<path id="XMLID_205_" style="fill:#214A78;" d="M182.93-154.643v-97.21c0-1.2-0.97-2.17-2.17-2.17h-7.97
			c-0.9,0-1.71-0.56-2.03-1.39l-3.46-9.05l-0.06-0.18l-1.42-4.97c-0.34-1.18,0.37-2.41,1.57-2.7l152.28-36.91
			c1.36-0.33,2.66,0.68,2.68,2.07l0.31,22.12c0.01,1.06,0.51,2.59-0.5,2.91l-5.46,0.02c-0.82,0-1.55,0.52-1.82,1.29
			c-0.62,1.8-0.84,4.92-0.78,5.96c0,0.06,0.1,0.52,0.19,1c0.13,0.65,0.66,1.14,1.32,1.24l0.98,0.13c0.3,1.32,0.3-0.04,0.3,1.32
			l0.04,101.45c0,1.2,0.97,2.17,2.18,2.17l10.18-0.04c1.2-0.01,2.18,0.96,2.18,2.16v8.61c0,1.2-0.98,2.17-2.17,2.17 M234.94-253.413
			c0-1.11-0.84-2.04-1.94-2.16l-0.57-0.06c-1.02-0.11-1.83-0.92-1.92-1.95l-0.7-7.14c-0.13-1.32-1.39-2.22-2.68-1.9l-7.75,1.92
			c-0.96,0.23-1.63,1.08-1.65,2.07l-0.15,8.77c-0.01,0.98-0.69,1.83-1.64,2.07c-0.97,0.23-1.65,1.1-1.65,2.1v79.75
			c0,1.19,0.95,2.16,2.14,2.17l16.31,0.17c1.21,0.02,2.2-0.96,2.2-2.17V-253.413z M286.61-265.193c0-1.01-0.71-1.89-1.7-2.11
			l-1.3-0.29c-0.95-0.21-1.65-1.03-1.7-2.01l0.36-8c-0.08-1.37-1.42-1.8-2.76-1.45l-8.91,1.62c-0.91,0.24-1.53,1.89-1.58,2.83
			l0.01,9.25v0.03c-0.07,1.07-1.07,1.85-2.15,1.83l-0.9-0.03c-0.81,0.34-0.36,5.38-0.36,6.25l0.41,87.55c0,1.2,0.97,2.17,2.16,2.17
			l16.25,0.02c1.19,0,2.17-0.97,2.17-2.17V-265.193z"/>
		<path id="XMLID_201_" style="fill:#214A78;" d="M17.195-231.964v-97.21c0-1.2-0.97-2.17-2.17-2.17h-7.97
			c-0.9,0-1.71-0.56-2.03-1.39l-3.46-9.05l-0.06-0.18l-1.42-4.97c-0.34-1.18,0.37-2.41,1.57-2.7l152.28-36.91
			c1.36-0.33,2.66,0.68,2.68,2.07l0.31,22.12c0.01,1.06,0.51,2.59-0.5,2.91l-5.46,0.02c-0.82,0-1.55,0.52-1.82,1.29
			c-0.62,1.8-0.84,4.92-0.78,5.96c0,0.06,0.1,0.52,0.19,1c0.13,0.65,0.66,1.14,1.32,1.24l0.98,0.13c0.3,1.32,0.3-0.04,0.3,1.32
			l0.04,101.45c0,1.2,0.97,2.17,2.18,2.17l10.18-0.04c1.2-0.01,2.18,0.96,2.18,2.16v8.61c0,1.2-0.98,2.17-2.17,2.17 M69.205-330.734
			c0-1.11-0.84-2.04-1.94-2.16l-0.57-0.06c-1.02-0.11-1.83-0.92-1.92-1.95l-0.7-7.14c-0.13-1.32-1.39-2.22-2.68-1.9l-7.75,1.92
			c-0.96,0.23-1.63,1.08-1.65,2.07l-0.15,8.77c-0.01,0.98-0.69,1.83-1.64,2.07c-0.97,0.23-1.65,1.1-1.65,2.1v79.75
			c0,1.19,0.95,2.16,2.14,2.17l16.31,0.17c1.21,0.02,2.2-0.96,2.2-2.17V-330.734z M120.875-342.514c0-1.01-0.71-1.89-1.7-2.11
			l-1.3-0.29c-0.95-0.21-1.65-1.03-1.7-2.01l0.36-8c-0.08-1.37-1.42-1.8-2.76-1.45l-8.91,1.62c-0.91,0.24-1.53,1.89-1.58,2.83
			l0.01,9.25v0.03c-0.07,1.07-1.07,1.85-2.15,1.83l-0.9-0.03c-0.81,0.34-0.36,5.38-0.36,6.25l0.41,87.55c0,1.2,0.97,2.17,2.16,2.17
			l16.25,0.02c1.19,0,2.17-0.97,2.17-2.17V-342.514z"/>
		<path id="XMLID_193_" style="fill:#214A78;" d="M182.93-309.286v-97.21c0-1.2-0.97-2.17-2.17-2.17h-7.97
			c-0.9,0-1.71-0.56-2.03-1.39l-3.46-9.05l-0.06-0.18l-1.42-4.97c-0.34-1.18,0.37-2.41,1.57-2.7l152.28-36.91
			c1.36-0.33,2.66,0.68,2.68,2.07l0.31,22.12c0.01,1.06,0.51,2.59-0.5,2.91l-5.46,0.02c-0.82,0-1.55,0.52-1.82,1.29
			c-0.62,1.8-0.84,4.92-0.78,5.96c0,0.06,0.1,0.52,0.19,1c0.13,0.65,0.66,1.14,1.32,1.24l0.98,0.13c0.3,1.32,0.3-0.04,0.3,1.32
			l0.04,101.45c0,1.2,0.97,2.17,2.18,2.17l10.18-0.04c1.2-0.01,2.18,0.96,2.18,2.16v8.61c0,1.2-0.98,2.17-2.17,2.17 M234.94-408.056
			c0-1.11-0.84-2.04-1.94-2.16l-0.57-0.06c-1.02-0.11-1.83-0.92-1.92-1.95l-0.7-7.14c-0.13-1.32-1.39-2.22-2.68-1.9l-7.75,1.92
			c-0.96,0.23-1.63,1.08-1.65,2.07l-0.15,8.77c-0.01,0.98-0.69,1.83-1.64,2.07c-0.97,0.23-1.65,1.1-1.65,2.1v79.75
			c0,1.19,0.95,2.16,2.14,2.17l16.31,0.17c1.21,0.02,2.2-0.96,2.2-2.17V-408.056z M286.61-419.836c0-1.01-0.71-1.89-1.7-2.11
			l-1.3-0.29c-0.95-0.21-1.65-1.03-1.7-2.01l0.36-8c-0.08-1.37-1.42-1.8-2.76-1.45l-8.91,1.62c-0.91,0.24-1.53,1.89-1.58,2.83
			l0.01,9.25v0.03c-0.07,1.07-1.07,1.85-2.15,1.83l-0.9-0.03c-0.81,0.34-0.36,5.38-0.36,6.25l0.41,87.55c0,1.2,0.97,2.17,2.16,2.17
			l16.25,0.02c1.19,0,2.17-0.97,2.17-2.17V-419.836z"/>
	</g>
</pattern>
<g id="XMLID_2_">
	<path id="XMLID_8_" style="fill:#214A78;" d="M686.3-1340.62l0.712,46.772l-149.722,35.946c-4.08,0.98-7.986,2.599-11.513,4.872
		c-4.33,2.791-8.062,7.043-10.84,12.263c-1.42,2.668-2.101,5.667-3.517,8.336l-46.053,86.821v-131.409L686.3-1340.62z"/>
	<path id="XMLID_3_" style="fill:#214A78;" d="M690.546-1137.017l-10.18,0.04c-1.21,0-2.18-0.97-2.18-2.17l-0.04-101.45
		c0-1.36,0,0-0.3-1.32l-0.98-0.13c-0.66-0.1-1.19-0.59-1.32-1.24c-0.09-0.48-0.19-0.94-0.19-1c-0.06-1.04,0.16-4.16,0.78-5.96
		c0.27-0.77,1-1.29,1.82-1.29l5.46-0.02c1.01-0.32,0.51-1.85,0.5-2.91l-0.31-22.12c-0.02-1.39-1.32-2.4-2.68-2.07l-152.28,36.91
		c-1.2,0.29-1.91,1.52-1.57,2.7l1.42,4.97l0.06,0.18l3.46,9.05c0.32,0.83,1.13,1.39,2.03,1.39h7.97c1.2,0,2.17,0.97,2.17,2.17v82.07
		c0,1.19-0.98,2.17-2.17,2.16h-7.98c-1.2,0-2.17-0.98-2.16-2.18l0.35-67.79c0-0.98-0.66-1.83-1.6-2.1
		c-2.19-0.63-6.35-2.43-10.81-7.51c-0.98-1.12-2.78-0.94-3.51,0.36l-50.38,88.73c-0.82,1.44,0.23,3.23,1.89,3.24l222.74,0.23
		c1.19,0,2.17-0.97,2.17-2.17v-8.61C692.726-1136.057,691.746-1137.027,690.546-1137.017z M596.196-1139.207
		c0,1.21-0.99,2.19-2.2,2.17l-16.31-0.17c-1.19-0.01-2.14-0.98-2.14-2.17v-79.75c0-1,0.68-1.87,1.65-2.1
		c0.95-0.24,1.63-1.09,1.64-2.07l0.15-8.77c0.02-0.99,0.69-1.84,1.65-2.07l7.75-1.92c1.29-0.32,2.55,0.58,2.68,1.9l0.7,7.14
		c0.09,1.03,0.9,1.84,1.92,1.95l0.57,0.06c1.1,0.12,1.94,1.05,1.94,2.16V-1139.207z M647.866-1139.137c0,1.2-0.98,2.17-2.17,2.17
		l-16.25-0.02c-1.19,0-2.16-0.97-2.16-2.17l-0.41-87.55c0-0.87-0.45-5.91,0.36-6.25l0.9,0.03c1.08,0.02,2.08-0.76,2.15-1.83v-0.03
		l-0.01-9.25c0.05-0.94,0.67-2.59,1.58-2.83l8.91-1.62c1.34-0.35,2.68,0.08,2.76,1.45l-0.36,8c0.05,0.98,0.75,1.8,1.7,2.01l1.3,0.29
		c0.99,0.22,1.7,1.1,1.7,2.11V-1139.137z"/>
</g>
<g id="XMLID_48_">
	<path id="XMLID_62_" style="fill:#214A78;" d="M2327.006-1140.614c-0.05-58.16-0.1-116.31-0.16-174.47c0-0.13-0.17-0.28-0.29-0.39
		c-0.11-0.12-0.24-0.2-0.6-0.49c-10.97,1.42-22.14,2.87-33.58,4.34c-0.9,17.54,0.41,34.97-0.77,52.68c-0.7,0-0.88,0.04-1.03,0
		c-0.63-0.2-1.27-0.36-1.87-0.64c-9.08-4.2-18.6-5.86-28.63-5.61c-22.53,0.56-40.44,12.92-48.43,34.5
		c-8.26,22.28-7.34,44.77,0.89,66.87c3.37,9.05,9.37,16.51,17.87,21.51c19.35,11.4,43.53,8.63,59.71-7.52
		c0.78-0.78,1.34-1.95,3.23-1.99v13.34h32.96C2327.116-1139.274,2327.006-1139.974,2327.006-1140.614z M2292.076-1177.884
		c-5.55,8.76-13.56,14.33-24.59,14.67c-10.64,0.32-19.24-5.55-22.23-15.77c-3.99-13.67-4.4-27.55,0.32-41.19
		c4.47-12.94,13.48-18.7,27.16-17.85c6.82,0.42,12.58,2.78,19.34,8.06V-1177.884z"/>
	<path id="XMLID_59_" style="fill:#214A78;" d="M2189.326-1221.864c0-3.67-0.38-7.3-1.09-10.9c-2.12-10.81-7.19-19.65-16.9-25.33
		c-6.4-3.74-13.44-5.9-20.77-6.6c-17.44-1.66-34.58-0.09-51.14,5.98c-2.44,0.89-5.03,1.59-7.23,3.27c0,4.32-0.09,8.48,0.03,12.63
		c0.13,4.24-0.55,8.53,0.33,13.01c3.38-1.32,6.44-2.59,9.55-3.73c12.53-4.57,25.36-6.67,38.68-4.59c3.34,0.52,6.44,1.66,9.06,3.84
		c5.95,4.93,5.75,11.34,4.71,18.27c-5.56,0-10.72-0.13-15.87,0.02c-10.68,0.31-21.21,1.66-31.41,5.01
		c-19.75,6.49-29.68,20.19-28.65,39.89c0.77,14.7,7.28,26.03,21.25,31.67c17.6,7.12,34.21,4.86,49.24-7.11
		c2.22-1.77,4.1-4.04,7.21-5.42v13.38h32.85c0.09-0.99,0.2-1.64,0.2-2.29C2189.366-1167.864,2189.356-1194.864,2189.326-1221.864z
		 M2155.156-1177.114c-3.23,10.11-19.05,18.04-28.97,15.17c-5.4-1.57-9.33-4.13-10.96-9.66c-1.68-5.68-0.97-10.87,3.18-15.32
		c4.34-4.67,10.09-6.25,16.13-6.97c2.96-0.35,5.98-0.28,8.98-0.32c3.65-0.05,7.3-0.01,11.64-0.01V-1177.114z"/>
	<path id="XMLID_58_" style="fill:#214A78;" d="M1790.616-1144.949c0-9.919,0-19.519,0-29.588c3.705,1.576,7.031,3.002,10.366,4.409
		c11.176,4.715,22.87,6.899,34.962,7.046c4.023,0.049,7.958-0.679,11.756-1.969c4.223-1.435,7.324-3.988,7.693-8.804
		c0.352-4.592-2.129-8.317-6.925-10.478c-6.256-2.819-13.015-3.952-19.586-5.69c-7.081-1.872-14.027-3.986-20.64-7.244
		c-21.423-10.552-21.901-35.235-12.636-49.532c4.602-7.102,11.689-11.187,19.366-14.302c5.133-2.083,10.532-3.235,15.998-3.651
		c17.232-1.312,34.257-0.465,50.627,5.866c0.78,0.302,1.581,0.511,2.332,1.398c0,9.167,0,18.571,0,28.355
		c-7.013-3.2-13.759-5.95-20.948-7.378c-9.027-1.793-18.088-2.658-27.228-0.833c-0.652,0.13-1.332,0.179-1.954,0.395
		c-3.809,1.324-6.951,3.287-7.297,7.848c-0.297,3.911,1.552,6.742,5.962,8.881c4.37,2.12,9.103,3.104,13.79,4.199
		c8.242,1.927,16.531,3.689,24.376,6.989c7.04,2.961,13.208,6.999,17.072,13.897c7.385,13.185,6.06,36.52-9.673,48.313
		c-6.505,4.876-13.908,7.878-21.819,9.318C1836.268-1133.872,1810.754-1135.612,1790.616-1144.949z"/>
	<path id="XMLID_57_" style="fill:#214A78;" d="M1897.597-1262.063c5.704-1.004,11.53-0.182,17.928-0.712
		c0.41-10.254-0.31-20.545,1.09-31.308c10.891-2.183,22.031-4.416,33.789-6.773c0,12.833,0,25.237,0,38.128
		c11.273,0,22.012,0,33.143,0c0.774,9.048-0.257,17.584-0.125,26.621c-11.121,0-21.851,0-32.509,0
		c-0.809,2.06-0.49,3.731-0.492,5.352c-0.029,15.652-0.016,31.305-0.025,46.957c-0.002,2.829,0.353,5.638,0.494,8.446
		c0.431,8.565,5.882,11.999,14.019,12.233c6.01,0.173,11.894-1.169,17.771-2.387c1.433,3.713,1.84,19.072,0.572,25.239
		c-14.803,3.864-29.849,6.102-45.098,2.167c-13.323-3.438-19.995-11.709-21.825-25.349c-1.047-7.809-0.525-15.614-0.597-23.416
		c-0.136-14.651-0.003-29.305,0.018-43.957c0.002-1.493,0-2.987,0-5.041c-6.04-0.664-11.968-0.088-17.797-0.376
		C1896.951-1239.783,1896.735-1256.159,1897.597-1262.063z"/>
	<path id="XMLID_56_" style="fill:#214A78;" d="M2000.869-1262.295c10.711,0,21.472,0,32.474,0
		c1.492,5.325,0.305,10.878,1.362,16.775c3.267-3.098,5.218-6.782,8.228-9.519c3.108-2.826,6.531-5.159,10.304-6.949
		c3.792-1.799,7.841-2.897,12.024-3.022c4.108-0.123,8.309-0.705,12.527,0.991c0,10.605,0,21.162,0,31.859
		c-2.638,0.159-4.911-0.22-7.202-0.521c-6.562-0.863-12.946-0.04-19.091,2.388c-7.136,2.82-12.225,7.855-15.998,15.616
		c0,24.714,0,50.308,0,76.164c-11.728,0-22.999,0-34.3,0C2000.18-1141.82,1999.812-1254.594,2000.869-1262.295z"/>
	<g id="XMLID_49_">
		<path id="XMLID_55_" style="fill:#214A78;" d="M1742.21-1352.617l0.712,46.772l-149.722,35.946
			c-4.08,0.979-7.986,2.599-11.513,4.872c-4.33,2.791-8.062,7.043-10.84,12.263c-1.42,2.667-2.101,5.666-3.517,8.336l-46.053,86.821
			v-131.409L1742.21-1352.617z"/>
		<path id="XMLID_50_" style="fill:#214A78;" d="M1746.456-1149.014h-1.29l-8.89,0.04c-0.42,0-0.8-0.11-1.12-0.31
			c-0.64-0.38-1.06-1.07-1.06-1.86l-0.04-101.45c0-1.36,0,0-0.3-1.32l-0.98-0.13c-0.66-0.1-1.19-0.59-1.32-1.24
			c-0.09-0.48-0.19-0.94-0.19-1c-0.07-1.04,0.16-4.16,0.78-5.96c0.13-0.38,0.37-0.69,0.68-0.91h0.01c0.32-0.24,0.71-0.38,1.13-0.38
			l2.11-0.01h0.01l3.34-0.01c1.01-0.32,0.51-1.85,0.5-2.91l-0.31-22.12c-0.02-1.39-1.32-2.4-2.68-2.07l-152.28,36.91
			c-1.2,0.29-1.91,1.52-1.57,2.7l1.42,4.97c0.02,0.06,0.04,0.12,0.06,0.18l0.71,1.87l0.01,0.04l2.68,6.98l0.06,0.16
			c0.32,0.83,1.13,1.39,2.03,1.39h7.97c0.22,0,0.44,0.03,0.65,0.1c0,0,0,0,0.01,0h0.01c0.87,0.29,1.5,1.1,1.5,2.07v82.07
			c0,0.7-0.34,1.32-0.86,1.72c-0.36,0.28-0.82,0.44-1.31,0.44h-7.98c-0.59,0-1.13-0.24-1.52-0.62c-0.4-0.4-0.65-0.95-0.64-1.56
			l0.35-67.79c0-0.98-0.66-1.83-1.6-2.1c-0.06-0.02-0.12-0.03-0.18-0.05c-0.57-0.18-1.26-0.43-2.05-0.79
			c-0.01,0-0.01-0.01-0.02-0.01c-2.28-1.03-5.34-2.99-8.56-6.66c-0.52-0.59-1.27-0.82-1.97-0.71c-0.62,0.09-1.19,0.46-1.54,1.07
			l-43.36,76.36l-0.02,0.04l-7,12.33c-0.2,0.36-0.29,0.73-0.28,1.1c0.01,0.55,0.23,1.07,0.6,1.46c0.39,0.41,0.94,0.67,1.57,0.68
			l222.74,0.23c1.19,0,2.17-0.97,2.17-2.17v-8.61C1748.636-1148.054,1747.656-1149.024,1746.456-1149.014z M1683.196-1151.154
			l-0.41-87.55c0-0.79-0.37-4.97,0.16-6.02v-0.01c0.06-0.12,0.12-0.19,0.2-0.22l0.25,0.01l0.65,0.02c1.08,0.02,2.08-0.76,2.15-1.83
			v-0.03l-0.01-9.25c0.04-0.82,0.52-2.19,1.25-2.68l0.01-0.01c0.1-0.06,0.21-0.11,0.32-0.14l0.37-0.06l0.04-0.01l8.5-1.55
			c0.99-0.26,1.99-0.09,2.47,0.58l0.01,0.01c0.16,0.23,0.26,0.51,0.28,0.86l-0.08,1.81v0.09l-0.28,6.1c0.02,0.47,0.2,0.91,0.49,1.26
			c0.3,0.37,0.72,0.64,1.21,0.75l0.65,0.15h0.01l0.64,0.14c0.99,0.22,1.7,1.1,1.7,2.11v95.49c0,0.84-0.49,1.58-1.19,1.93
			c-0.29,0.16-0.62,0.24-0.98,0.24l-16.25-0.02c-0.44,0-0.86-0.14-1.21-0.37C1683.576-1149.744,1683.196-1150.404,1683.196-1151.154
			z M1631.456-1151.374v-79.75c0-1,0.68-1.87,1.65-2.1c0.95-0.24,1.63-1.09,1.64-2.07l0.15-8.77c0.01-0.99,0.69-1.84,1.65-2.07
			l7.75-1.92c1.28-0.32,2.55,0.58,2.68,1.9l0.7,7.14c0.01,0.13,0.03,0.25,0.07,0.37c0.23,0.85,0.96,1.48,1.85,1.58l0.26,0.03h0.03
			l0.28,0.03c1.1,0.12,1.94,1.05,1.94,2.16v83.64c0,0.69-0.32,1.31-0.83,1.7c-0.38,0.3-0.85,0.48-1.37,0.47l-16.31-0.17
			c-0.39,0-0.76-0.11-1.07-0.3C1631.886-1149.874,1631.456-1150.574,1631.456-1151.374z"/>
	</g>
</g>
<path id="XMLID_95_" style="fill:#214A78;" d="M3346.453-1160.784c1.19,0,2.17-0.97,2.17-2.17v-8.61c0-1.2-0.98-2.17-2.18-2.16
	l-10.18,0.04c-1.21,0-2.18-0.97-2.18-2.17l-0.04-101.45c0-1.36,0,0-0.3-1.32l-0.98-0.13c-0.66-0.1-1.19-0.59-1.32-1.24
	c-0.09-0.48-0.19-0.94-0.19-1c-0.06-1.04,0.16-4.16,0.78-5.96c0.27-0.77,1-1.29,1.82-1.29l5.46-0.02c1.01-0.32,0.51-1.85,0.5-2.91
	l-0.31-22.12c-0.02-1.39-1.32-2.4-2.68-2.07l-152.28,36.91c-1.2,0.29-1.91,1.52-1.57,2.7l1.42,4.97l0.06,0.18l3.46,9.05
	c0.32,0.83,1.13,1.39,2.03,1.39h7.97c1.2,0,2.17,0.97,2.17,2.17v97.21 M3252.094-1175.914c0,1.21-0.99,2.19-2.2,2.17l-16.31-0.17
	c-1.19-0.01-2.14-0.98-2.14-2.17v-79.75c0-1,0.68-1.87,1.65-2.1c0.95-0.24,1.63-1.09,1.64-2.07l0.15-8.77
	c0.02-0.99,0.69-1.84,1.65-2.07l7.75-1.92c1.29-0.32,2.55,0.58,2.68,1.9l0.7,7.14c0.09,1.03,0.9,1.84,1.92,1.95l0.57,0.06
	c1.1,0.12,1.94,1.05,1.94,2.16V-1175.914z M3303.763-1175.844c0,1.2-0.98,2.17-2.17,2.17l-16.25-0.02c-1.19,0-2.16-0.97-2.16-2.17
	l-0.41-87.55c0-0.87-0.45-5.91,0.36-6.25l0.9,0.03c1.08,0.02,2.08-0.76,2.15-1.83v-0.03l-0.01-9.25c0.05-0.94,0.67-2.59,1.58-2.83
	l8.91-1.62c1.34-0.35,2.68,0.08,2.76,1.45l-0.36,8c0.05,0.98,0.75,1.8,1.7,2.01l1.3,0.29c0.99,0.22,1.7,1.1,1.7,2.11V-1175.844z"/>
<line id="XMLID_94_" style="fill:none;" x1="3200.083" y1="-1188.851" x2="3200.083" y2="-1160.784"/>
<path id="XMLID_93_" style="fill:#214A78;" d="M3200.083-1170.913"/>
<path id="XMLID_92_" style="fill:#214A78;" d="M3200.083-1175.476"/>
<rect id="XMLID_167_" x="1300" y="-824" style="opacity:0.66;fill:url(#New_Pattern);" width="1280" height="800"/>
<g id="XMLID_198_">
	<path id="XMLID_238_" style="fill:#FFFFFF;" d="M1232.675-263.231c-0.074-85.563-0.147-171.111-0.235-256.673
		c0-0.191-0.25-0.412-0.427-0.574c-0.162-0.177-0.353-0.294-0.883-0.721c-16.139,2.089-32.571,4.222-49.401,6.385
		c-1.324,25.804,0.603,51.446-1.133,77.501c-1.03,0-1.295,0.059-1.515,0c-0.927-0.294-1.868-0.53-2.751-0.942
		c-13.358-6.179-27.364-8.621-42.119-8.253c-33.145,0.824-59.494,19.007-71.248,50.755c-12.152,32.777-10.798,65.864,1.309,98.376
		c4.958,13.314,13.785,24.289,26.29,31.645c28.467,16.771,64.04,12.696,87.843-11.063c1.147-1.147,1.971-2.869,4.752-2.928v19.625
		h48.489C1232.836-261.26,1232.675-262.29,1232.675-263.231z M1181.287-318.061c-8.165,12.887-19.949,21.082-36.176,21.582
		c-15.653,0.471-28.305-8.165-32.704-23.2c-5.87-20.111-6.473-40.531,0.471-60.597c6.576-19.037,19.831-27.511,39.957-26.26
		c10.033,0.618,18.507,4.09,28.452,11.858V-318.061z"/>
	<path id="XMLID_225_" style="fill:#FFFFFF;" d="M1030.125-382.763c0-5.399-0.559-10.74-1.604-16.036
		c-3.119-15.903-10.578-28.908-24.863-37.264c-9.415-5.502-19.772-8.68-30.556-9.71c-25.657-2.442-50.873-0.132-75.235,8.798
		c-3.59,1.309-7.4,2.339-10.636,4.811c0,6.355-0.132,12.475,0.044,18.581c0.191,6.238-0.809,12.549,0.486,19.14
		c4.973-1.942,9.474-3.81,14.05-5.487c18.434-6.723,37.309-9.813,56.904-6.753c4.914,0.765,9.474,2.442,13.329,5.649
		c8.753,7.253,8.459,16.683,6.929,26.878c-8.18,0-15.771-0.191-23.347,0.029c-15.712,0.456-31.203,2.442-46.209,7.37
		c-29.055,9.548-43.664,29.703-42.149,58.685c1.133,21.626,10.71,38.294,31.262,46.592c25.892,10.475,50.328,7.15,72.44-10.46
		c3.266-2.604,6.032-5.944,10.607-7.974v19.684h48.328c0.132-1.456,0.294-2.413,0.294-3.369
		C1030.184-303.32,1030.169-343.042,1030.125-382.763z M979.856-316.928c-4.752,14.873-28.026,26.54-42.619,22.318
		c-7.944-2.31-13.726-6.076-16.124-14.212c-2.471-8.356-1.427-15.991,4.678-22.538c6.385-6.87,14.844-9.195,23.73-10.254
		c4.355-0.515,8.798-0.412,13.211-0.471c5.37-0.074,10.739-0.015,17.124-0.015V-316.928z"/>
	<path id="XMLID_224_" style="fill:#FFFFFF;" d="M443.56-269.609c0-14.592,0-28.715,0-43.528c5.451,2.319,10.344,4.416,15.25,6.486
		c16.442,6.937,33.645,10.15,51.435,10.365c5.919,0.072,11.707-0.998,17.296-2.897c6.213-2.11,10.775-5.867,11.318-12.952
		c0.518-6.756-3.131-12.235-10.188-15.414c-9.204-4.147-19.147-5.814-28.814-8.371c-10.417-2.755-20.636-5.864-30.365-10.657
		c-31.516-15.524-32.221-51.836-18.589-72.87c6.771-10.448,17.197-16.458,28.49-21.041c7.552-3.065,15.495-4.759,23.535-5.371
		c25.35-1.93,50.397-0.684,74.48,8.63c1.148,0.444,2.326,0.752,3.431,2.057c0,13.486,0,27.32,0,41.715
		c-10.317-4.707-20.242-8.754-30.817-10.854c-13.28-2.637-26.61-3.911-40.057-1.225c-0.96,0.192-1.96,0.263-2.875,0.581
		c-5.604,1.948-10.225,4.836-10.735,11.546c-0.437,5.754,2.284,9.919,8.771,13.066c6.429,3.119,13.392,4.566,20.287,6.178
		c12.125,2.834,24.32,5.427,35.861,10.281c10.357,4.356,19.431,10.297,25.115,20.445c10.865,19.397,8.915,53.726-14.231,71.076
		c-9.571,7.174-20.462,11.59-32.1,13.709C510.721-253.313,473.185-255.873,443.56-269.609z"/>
	<path id="XMLID_223_" style="fill:#FFFFFF;" d="M600.946-441.902c8.391-1.477,16.962-0.267,26.375-1.048
		c0.603-15.085-0.457-30.225,1.603-46.06c16.023-3.212,32.412-6.497,49.71-9.964c0,18.879,0,37.127,0,56.092
		c16.584,0,32.383,0,48.759,0c1.138,13.311-0.378,25.869-0.184,39.164c-16.361,0-32.146,0-47.826,0
		c-1.189,3.031-0.72,5.489-0.724,7.873c-0.043,23.027-0.023,46.054-0.036,69.081c-0.002,4.162,0.52,8.294,0.727,12.426
		c0.633,12.6,8.654,17.652,20.624,17.997c8.842,0.255,17.498-1.72,26.143-3.511c2.108,5.463,2.707,28.058,0.841,37.131
		c-21.778,5.684-43.912,8.978-66.346,3.188c-19.6-5.058-29.416-17.226-32.108-37.292c-1.541-11.488-0.772-22.97-0.878-34.449
		c-0.2-21.554-0.004-43.112,0.026-64.668c0.003-2.197,0-4.394,0-7.415c-8.886-0.977-17.607-0.129-26.183-0.553
		C599.995-409.125,599.678-433.217,600.946-441.902z"/>
	<path id="XMLID_222_" style="fill:#FFFFFF;" d="M752.875-442.243c15.758,0,31.588,0,47.774,0
		c2.195,7.834,0.449,16.003,2.004,24.678c4.806-4.557,7.677-9.978,12.105-14.004c4.572-4.157,9.608-7.59,15.159-10.223
		c5.579-2.646,11.535-4.262,17.69-4.447c6.044-0.181,12.223-1.037,18.429,1.458c0,15.601,0,31.133,0,46.87
		c-3.881,0.234-7.225-0.323-10.595-0.767c-9.654-1.269-19.046-0.059-28.086,3.513c-10.499,4.149-17.985,11.556-23.535,22.973
		c0,36.359,0,74.011,0,112.05c-17.254,0-33.835,0-50.461,0C751.861-265.006,751.32-430.914,752.875-442.243z"/>
	<g id="XMLID_199_">
		<path id="XMLID_221_" style="fill:#FFFFFF;" d="M372.345-575.122l1.048,68.809L153.128-453.43
			c-6.003,1.441-11.748,3.823-16.937,7.167c-6.371,4.106-11.86,10.361-15.948,18.041c-2.089,3.924-3.091,8.336-5.174,12.263
			L47.318-288.231v-193.324L372.345-575.122z"/>
		<path id="XMLID_216_" style="fill:#FFFFFF;" d="M378.593-275.589h-1.898l-13.079,0.059c-0.618,0-1.177-0.162-1.648-0.456
			c-0.942-0.559-1.559-1.574-1.559-2.736l-0.059-149.249c0-2.001,0,0-0.441-1.942l-1.442-0.191
			c-0.971-0.147-1.751-0.868-1.942-1.824c-0.132-0.706-0.28-1.383-0.28-1.471c-0.103-1.53,0.235-6.12,1.147-8.768
			c0.191-0.559,0.544-1.015,1-1.339h0.015c0.471-0.353,1.045-0.559,1.662-0.559l3.104-0.015h0.015l4.914-0.015
			c1.486-0.471,0.75-2.722,0.736-4.281l-0.456-32.542c-0.029-2.045-1.942-3.531-3.943-3.045l-224.028,54.301
			c-1.765,0.427-2.81,2.236-2.31,3.972l2.089,7.312c0.029,0.088,0.059,0.177,0.088,0.265l1.044,2.751l0.015,0.059l3.943,10.269
			l0.088,0.235c0.471,1.221,1.662,2.045,2.986,2.045h11.725c0.324,0,0.647,0.044,0.956,0.147c0,0,0,0,0.015,0h0.015
			c1.28,0.427,2.207,1.618,2.207,3.045v120.738c0,1.03-0.5,1.942-1.265,2.53c-0.53,0.412-1.206,0.647-1.927,0.647h-11.74
			c-0.868,0-1.662-0.353-2.236-0.912c-0.588-0.589-0.956-1.398-0.941-2.295l0.515-99.73c0-1.442-0.971-2.692-2.354-3.089
			c-0.088-0.029-0.177-0.044-0.265-0.074c-0.838-0.265-1.854-0.633-3.016-1.162c-0.015,0-0.015-0.015-0.029-0.015
			c-3.354-1.515-7.856-4.399-12.593-9.798c-0.765-0.868-1.868-1.206-2.898-1.045c-0.912,0.132-1.751,0.677-2.266,1.574
			l-63.79,112.338l-0.029,0.059l-10.298,18.139c-0.294,0.53-0.427,1.074-0.412,1.618c0.015,0.809,0.338,1.574,0.883,2.148
			c0.574,0.603,1.383,0.986,2.31,1l327.686,0.338c1.751,0,3.192-1.427,3.192-3.192v-12.667
			C381.8-274.177,380.358-275.604,378.593-275.589z M285.527-278.737l-0.603-128.8c0-1.162-0.544-7.312,0.235-8.856v-0.015
			c0.088-0.177,0.177-0.28,0.294-0.324l0.368,0.015l0.956,0.029c1.589,0.029,3.06-1.118,3.163-2.692v-0.044l-0.015-13.608
			c0.059-1.206,0.765-3.222,1.839-3.943l0.015-0.015c0.147-0.088,0.309-0.162,0.471-0.206l0.544-0.088l0.059-0.015l12.505-2.28
			c1.456-0.382,2.928-0.132,3.634,0.853l0.015,0.015c0.235,0.338,0.382,0.75,0.412,1.265l-0.118,2.663v0.132l-0.412,8.974
			c0.029,0.691,0.294,1.339,0.721,1.854c0.441,0.544,1.059,0.942,1.78,1.103l0.956,0.221h0.015l0.942,0.206
			c1.456,0.324,2.501,1.618,2.501,3.104v140.481c0,1.236-0.721,2.324-1.751,2.839c-0.427,0.235-0.912,0.353-1.442,0.353
			l-23.906-0.029c-0.647,0-1.265-0.206-1.78-0.544C286.086-276.663,285.527-277.634,285.527-278.737z M209.409-279.061v-117.325
			c0-1.471,1-2.751,2.427-3.09c1.398-0.353,2.398-1.604,2.413-3.045l0.221-12.902c0.015-1.456,1.015-2.707,2.427-3.045l11.401-2.825
			c1.883-0.471,3.752,0.853,3.943,2.795l1.03,10.504c0.015,0.191,0.044,0.368,0.103,0.544c0.338,1.25,1.412,2.177,2.722,2.324
			l0.382,0.044h0.044l0.412,0.044c1.618,0.177,2.854,1.545,2.854,3.178v123.048c0,1.015-0.471,1.927-1.221,2.501
			c-0.559,0.441-1.251,0.706-2.015,0.691l-23.995-0.25c-0.574,0-1.118-0.162-1.574-0.441
			C210.042-276.854,209.409-277.884,209.409-279.061z"/>
	</g>
</g>
<g id="XMLID_44_">
	<path id="XMLID_68_" style="fill:#FFFFFF;" d="M993.323,38.49l2.346,154.08L502.442,310.987
		c-13.441,3.227-26.307,8.561-37.926,16.049c-14.266,9.193-26.558,23.201-35.711,40.399c-4.677,8.788-6.922,18.667-11.586,27.461
		L265.507,680.908v-432.9L993.323,38.49z"/>
	<path id="XMLID_45_" style="fill:#FFFFFF;" d="M1007.312,709.218h-4.25l-29.286,0.132c-1.384,0-2.635-0.363-3.69-1.021
		c-2.108-1.252-3.492-3.525-3.492-6.127l-0.132-334.205c0-4.48,0,0-0.988-4.348l-3.228-0.428c-2.174-0.329-3.92-1.944-4.349-4.085
		c-0.297-1.581-0.626-3.097-0.626-3.294c-0.231-3.426,0.527-13.704,2.569-19.634c0.428-1.252,1.219-2.273,2.24-2.998h0.033
		c1.054-0.791,2.339-1.252,3.723-1.252l6.951-0.033h0.033l11.003-0.033c3.327-1.054,1.68-6.095,1.647-9.586l-1.021-72.87
		c-0.066-4.579-4.348-7.906-8.829-6.819L473.967,364.207c-3.953,0.955-6.292,5.007-5.172,8.894l4.678,16.373
		c0.066,0.198,0.132,0.395,0.198,0.593l2.339,6.16l0.033,0.132l8.829,22.994l0.198,0.527c1.054,2.734,3.723,4.579,6.688,4.579
		h26.255c0.725,0,1.449,0.099,2.141,0.329c0,0,0,0,0.033,0h0.033c2.866,0.955,4.941,3.624,4.941,6.819V701.97
		c0,2.306-1.12,4.348-2.833,5.666c-1.186,0.922-2.701,1.449-4.315,1.449h-26.288c-1.944,0-3.723-0.791-5.007-2.042
		c-1.318-1.318-2.141-3.129-2.108-5.139l1.153-223.32c0-3.228-2.174-6.029-5.271-6.918c-0.198-0.066-0.395-0.099-0.593-0.165
		c-1.878-0.593-4.151-1.417-6.753-2.602c-0.033,0-0.033-0.033-0.066-0.033c-7.511-3.393-17.592-9.85-28.199-21.94
		c-1.713-1.944-4.184-2.701-6.49-2.339c-2.042,0.297-3.92,1.515-5.073,3.525l-142.84,251.552l-0.066,0.132l-23.06,40.618
		c-0.659,1.186-0.955,2.405-0.923,3.624c0.033,1.812,0.758,3.525,1.977,4.81c1.285,1.35,3.097,2.207,5.172,2.24l733.77,0.758
		c3.92,0,7.148-3.195,7.148-7.148v-28.364C1014.493,712.38,1011.265,709.185,1007.312,709.218z M798.915,702.168l-1.351-288.415
		c0-2.602-1.219-16.373,0.527-19.832v-0.033c0.198-0.395,0.395-0.626,0.659-0.725l0.824,0.033l2.141,0.066
		c3.558,0.066,6.852-2.504,7.083-6.028v-0.099l-0.033-30.472c0.132-2.701,1.713-7.215,4.118-8.829l0.033-0.033
		c0.329-0.198,0.692-0.362,1.054-0.461l1.219-0.198l0.132-0.033l28.001-5.106c3.261-0.856,6.556-0.296,8.137,1.911l0.033,0.033
		c0.527,0.758,0.856,1.68,0.922,2.833l-0.264,5.963v0.297l-0.922,20.095c0.066,1.548,0.659,2.998,1.614,4.151
		c0.988,1.219,2.372,2.108,3.986,2.471l2.141,0.494h0.033l2.108,0.461c3.261,0.725,5.6,3.624,5.6,6.951v314.571
		c0,2.767-1.614,5.205-3.92,6.358c-0.956,0.527-2.042,0.791-3.229,0.791l-53.532-0.066c-1.449,0-2.833-0.461-3.986-1.219
		C800.167,706.813,798.915,704.638,798.915,702.168z M628.469,701.443V438.724c0-3.294,2.24-6.16,5.435-6.918
		c3.13-0.791,5.37-3.591,5.403-6.819l0.494-28.891c0.033-3.261,2.273-6.062,5.435-6.819l25.531-6.325
		c4.217-1.054,8.401,1.911,8.829,6.259l2.306,23.521c0.033,0.428,0.099,0.824,0.231,1.219c0.758,2.8,3.163,4.875,6.095,5.205
		l0.856,0.099h0.099l0.922,0.099c3.624,0.395,6.391,3.459,6.391,7.116v275.534c0,2.273-1.054,4.315-2.734,5.6
		c-1.252,0.988-2.8,1.581-4.513,1.548l-53.73-0.56c-1.285,0-2.504-0.363-3.525-0.988
		C629.885,706.385,628.469,704.078,628.469,701.443z"/>
</g>
<g id="XMLID_23_">
	<path id="XMLID_29_" style="fill:#214A78;" d="M2806.182-517.361l0.516,33.855l-108.375,26.019
		c-2.953,0.709-5.78,1.881-8.333,3.526c-3.135,2.02-5.836,5.098-7.847,8.877c-1.028,1.931-1.521,4.102-2.546,6.034l-33.335,62.844
		v-95.119L2806.182-517.361z"/>
	<path id="XMLID_24_" style="fill:#214A78;" d="M2809.256-369.985h-0.934l-6.435,0.029c-0.304,0-0.579-0.08-0.811-0.224
		c-0.463-0.275-0.767-0.775-0.767-1.346l-0.029-73.434c0-0.984,0,0-0.217-0.955l-0.709-0.094c-0.478-0.072-0.861-0.427-0.955-0.898
		c-0.065-0.347-0.138-0.68-0.138-0.724c-0.051-0.753,0.116-3.011,0.565-4.314c0.094-0.275,0.268-0.499,0.492-0.659h0.007
		c0.232-0.174,0.514-0.275,0.818-0.275l1.527-0.007h0.007l2.417-0.007c0.731-0.232,0.369-1.339,0.362-2.106l-0.224-16.011
		c-0.015-1.006-0.956-1.737-1.94-1.498l-110.227,26.717c-0.869,0.21-1.383,1.1-1.136,1.954l1.028,3.598
		c0.015,0.043,0.029,0.087,0.043,0.13l0.514,1.354l0.007,0.029l1.94,5.052l0.043,0.116c0.231,0.601,0.818,1.006,1.469,1.006h5.769
		c0.159,0,0.319,0.022,0.47,0.072c0,0,0,0,0.007,0h0.007c0.63,0.21,1.086,0.796,1.086,1.498v59.406c0,0.507-0.246,0.955-0.623,1.245
		c-0.26,0.203-0.594,0.318-0.948,0.318h-5.776c-0.427,0-0.818-0.174-1.1-0.449c-0.29-0.29-0.47-0.688-0.463-1.129l0.253-49.069
		c0-0.709-0.478-1.325-1.158-1.52c-0.043-0.014-0.087-0.022-0.13-0.036c-0.413-0.13-0.912-0.311-1.484-0.572
		c-0.007,0-0.007-0.007-0.014-0.007c-1.65-0.746-3.865-2.164-6.196-4.821c-0.376-0.427-0.919-0.594-1.426-0.514
		c-0.449,0.065-0.861,0.333-1.115,0.775l-31.386,55.272l-0.014,0.029l-5.067,8.925c-0.145,0.261-0.21,0.528-0.203,0.796
		c0.007,0.398,0.167,0.774,0.434,1.057c0.282,0.297,0.68,0.485,1.136,0.492l161.228,0.166c0.861,0,1.571-0.702,1.571-1.571v-6.232
		C2810.834-369.29,2810.125-369.992,2809.256-369.985z M2763.466-371.534l-0.297-63.372c0-0.572-0.268-3.598,0.116-4.358v-0.007
		c0.043-0.087,0.087-0.138,0.145-0.159l0.181,0.007l0.47,0.014c0.782,0.014,1.506-0.55,1.556-1.325v-0.022l-0.007-6.696
		c0.029-0.594,0.376-1.585,0.905-1.94l0.007-0.007c0.072-0.043,0.152-0.08,0.231-0.101l0.268-0.043l0.029-0.007l6.153-1.122
		c0.717-0.188,1.44-0.065,1.788,0.42l0.007,0.007c0.116,0.166,0.188,0.369,0.203,0.622l-0.058,1.31v0.065l-0.203,4.415
		c0.014,0.34,0.145,0.659,0.355,0.912c0.217,0.268,0.521,0.463,0.876,0.543l0.47,0.109h0.007l0.463,0.101
		c0.717,0.159,1.231,0.796,1.231,1.527v69.12c0,0.608-0.355,1.144-0.861,1.397c-0.21,0.116-0.449,0.174-0.709,0.174l-11.762-0.014
		c-0.318,0-0.623-0.101-0.876-0.268C2763.741-370.513,2763.466-370.991,2763.466-371.534z M2726.014-371.693v-57.726
		c0-0.724,0.492-1.354,1.194-1.52c0.688-0.174,1.18-0.789,1.187-1.498l0.109-6.348c0.007-0.717,0.5-1.332,1.194-1.498l5.61-1.39
		c0.927-0.232,1.846,0.42,1.94,1.375l0.507,5.168c0.007,0.094,0.022,0.181,0.051,0.268c0.167,0.615,0.695,1.071,1.339,1.144
		l0.188,0.022h0.022l0.203,0.022c0.796,0.087,1.404,0.76,1.404,1.563v60.542c0,0.499-0.232,0.948-0.601,1.23
		c-0.275,0.217-0.615,0.347-0.992,0.34l-11.806-0.123c-0.282,0-0.55-0.08-0.775-0.217
		C2726.326-370.607,2726.014-371.114,2726.014-371.693z"/>
</g>
<text id="XMLID_22_" transform="matrix(1.0162 0 0 1 2828.6628 -364.9619)" style="fill:#214A78; font-family:'GhratheRegular'; font-size:118.916px;">Strad</text>
<g id="XMLID_152_">
	<g id="XMLID_108_">
		<path id="XMLID_114_" style="fill:#214A78;" d="M2806.182-222.778l0.516,33.855l-108.375,26.019
			c-2.953,0.709-5.78,1.881-8.333,3.526c-3.135,2.02-5.835,5.098-7.846,8.877c-1.028,1.931-1.521,4.102-2.546,6.034l-33.335,62.844
			v-95.119L2806.182-222.778z"/>
		<path id="XMLID_109_" style="fill:#214A78;" d="M2809.256-75.402h-0.934l-6.435,0.029c-0.304,0-0.579-0.08-0.811-0.224
			c-0.463-0.275-0.767-0.775-0.767-1.346l-0.029-73.434c0-0.984,0,0-0.217-0.955l-0.709-0.094c-0.478-0.072-0.861-0.427-0.955-0.898
			c-0.065-0.347-0.138-0.68-0.138-0.724c-0.051-0.753,0.116-3.011,0.565-4.314c0.094-0.275,0.268-0.499,0.492-0.659h0.007
			c0.231-0.174,0.514-0.275,0.818-0.275l1.527-0.007h0.007l2.418-0.007c0.731-0.232,0.369-1.339,0.362-2.106l-0.224-16.011
			c-0.014-1.006-0.955-1.737-1.94-1.498l-110.227,26.717c-0.869,0.21-1.383,1.1-1.136,1.954l1.028,3.598
			c0.014,0.043,0.029,0.087,0.043,0.13l0.514,1.354l0.007,0.029l1.94,5.052l0.043,0.116c0.232,0.601,0.818,1.006,1.469,1.006h5.769
			c0.159,0,0.318,0.022,0.47,0.072c0,0,0,0,0.007,0h0.007c0.63,0.21,1.086,0.796,1.086,1.498v59.406
			c0,0.507-0.246,0.955-0.623,1.245c-0.26,0.203-0.594,0.318-0.948,0.318h-5.776c-0.427,0-0.818-0.174-1.1-0.449
			c-0.29-0.29-0.47-0.688-0.463-1.129l0.253-49.069c0-0.709-0.478-1.325-1.158-1.52c-0.043-0.014-0.087-0.022-0.13-0.036
			c-0.413-0.13-0.912-0.311-1.484-0.572c-0.007,0-0.007-0.007-0.015-0.007c-1.65-0.746-3.865-2.164-6.196-4.821
			c-0.376-0.427-0.919-0.594-1.426-0.514c-0.449,0.065-0.861,0.333-1.115,0.775l-31.386,55.272l-0.015,0.029l-5.067,8.925
			c-0.145,0.261-0.21,0.528-0.203,0.796c0.007,0.398,0.167,0.774,0.434,1.057c0.282,0.297,0.68,0.485,1.136,0.492l161.228,0.166
			c0.861,0,1.571-0.702,1.571-1.571v-6.232C2810.834-74.707,2810.125-75.409,2809.256-75.402z M2763.466-76.951l-0.297-63.372
			c0-0.572-0.268-3.598,0.116-4.358v-0.007c0.043-0.087,0.087-0.138,0.145-0.159l0.181,0.007l0.47,0.014
			c0.782,0.014,1.506-0.55,1.556-1.325v-0.022l-0.007-6.696c0.029-0.594,0.376-1.585,0.905-1.94l0.007-0.007
			c0.073-0.043,0.152-0.08,0.232-0.101l0.268-0.043l0.029-0.007l6.153-1.122c0.717-0.188,1.44-0.065,1.788,0.42l0.007,0.007
			c0.116,0.166,0.188,0.369,0.203,0.622l-0.058,1.31v0.065l-0.203,4.415c0.014,0.34,0.145,0.659,0.354,0.912
			c0.217,0.268,0.521,0.463,0.876,0.543l0.47,0.109h0.007l0.463,0.101c0.717,0.159,1.231,0.796,1.231,1.527v69.12
			c0,0.608-0.355,1.144-0.862,1.397c-0.21,0.116-0.449,0.174-0.709,0.174l-11.762-0.014c-0.319,0-0.623-0.101-0.876-0.268
			C2763.741-75.93,2763.466-76.408,2763.466-76.951z M2726.014-77.11v-57.726c0-0.724,0.492-1.354,1.194-1.52
			c0.688-0.174,1.18-0.789,1.187-1.498l0.109-6.348c0.007-0.717,0.499-1.332,1.194-1.498l5.61-1.39
			c0.927-0.232,1.846,0.42,1.94,1.375l0.507,5.168c0.007,0.094,0.022,0.181,0.051,0.268c0.167,0.615,0.695,1.071,1.339,1.144
			l0.188,0.022h0.022l0.203,0.022c0.796,0.087,1.404,0.76,1.404,1.563v60.542c0,0.499-0.232,0.948-0.601,1.23
			c-0.275,0.217-0.615,0.347-0.992,0.34l-11.806-0.123c-0.282,0-0.55-0.08-0.774-0.217
			C2726.326-76.024,2726.014-76.531,2726.014-77.11z"/>
	</g>
	
		<text id="XMLID_107_" transform="matrix(0.9897 0 0 1 2828.6621 -71.0156)" style="fill:#214A78;stroke:#214A78;stroke-width:2;stroke-miterlimit:10; font-family:'Quantify'; font-size:121.8174px;">Strad</text>
</g>
<g id="XMLID_155_">
	<g id="XMLID_132_">
		<path id="XMLID_139_" style="fill:#214A78;" d="M2806.183-811.944l0.515,33.855l-108.375,26.019
			c-2.953,0.709-5.78,1.881-8.333,3.526c-3.135,2.02-5.835,5.098-7.847,8.877c-1.028,1.931-1.521,4.102-2.546,6.034l-33.335,62.844
			v-95.12L2806.183-811.944z"/>
		<path id="XMLID_133_" style="fill:#214A78;" d="M2809.256-664.568h-0.934l-6.435,0.029c-0.304,0-0.579-0.08-0.811-0.224
			c-0.463-0.275-0.767-0.775-0.767-1.346l-0.029-73.434c0-0.984,0,0-0.217-0.955l-0.709-0.094c-0.478-0.072-0.862-0.427-0.956-0.898
			c-0.065-0.347-0.137-0.68-0.137-0.724c-0.051-0.753,0.116-3.011,0.564-4.314c0.094-0.275,0.268-0.499,0.492-0.659h0.007
			c0.232-0.174,0.514-0.275,0.818-0.275l1.527-0.007h0.007l2.417-0.007c0.731-0.232,0.369-1.339,0.362-2.106l-0.224-16.011
			c-0.015-1.006-0.956-1.737-1.94-1.498l-110.227,26.717c-0.869,0.21-1.383,1.1-1.136,1.954l1.028,3.598
			c0.014,0.043,0.029,0.087,0.043,0.13l0.514,1.354l0.007,0.029l1.94,5.052l0.043,0.116c0.232,0.601,0.818,1.006,1.469,1.006h5.769
			c0.159,0,0.319,0.022,0.471,0.072c0,0,0,0,0.007,0h0.007c0.63,0.21,1.086,0.796,1.086,1.498v59.406
			c0,0.507-0.246,0.955-0.623,1.245c-0.26,0.203-0.594,0.318-0.948,0.318h-5.776c-0.427,0-0.818-0.174-1.1-0.449
			c-0.29-0.29-0.47-0.688-0.463-1.129l0.253-49.069c0-0.709-0.478-1.325-1.158-1.52c-0.043-0.015-0.087-0.022-0.13-0.036
			c-0.413-0.13-0.912-0.311-1.484-0.572c-0.007,0-0.007-0.007-0.014-0.007c-1.65-0.746-3.865-2.164-6.196-4.821
			c-0.376-0.427-0.919-0.594-1.426-0.514c-0.449,0.065-0.861,0.333-1.115,0.775l-31.386,55.272l-0.014,0.029l-5.067,8.925
			c-0.145,0.261-0.21,0.528-0.203,0.796c0.007,0.398,0.167,0.774,0.434,1.057c0.282,0.297,0.68,0.485,1.136,0.492l161.228,0.166
			c0.862,0,1.571-0.702,1.571-1.571v-6.232C2810.834-663.873,2810.125-664.575,2809.256-664.568z M2763.466-666.117l-0.297-63.372
			c0-0.572-0.268-3.597,0.116-4.358v-0.007c0.043-0.087,0.087-0.138,0.145-0.159l0.181,0.007l0.47,0.014
			c0.782,0.015,1.506-0.55,1.556-1.325v-0.022l-0.007-6.695c0.029-0.594,0.376-1.585,0.905-1.94l0.007-0.007
			c0.072-0.043,0.152-0.08,0.232-0.101l0.268-0.043l0.029-0.007l6.153-1.122c0.717-0.188,1.44-0.065,1.788,0.42l0.007,0.007
			c0.116,0.167,0.188,0.369,0.203,0.622l-0.058,1.31v0.065l-0.203,4.415c0.014,0.34,0.145,0.659,0.355,0.912
			c0.217,0.268,0.521,0.463,0.876,0.543l0.47,0.109h0.007l0.463,0.101c0.717,0.159,1.23,0.796,1.23,1.527v69.12
			c0,0.608-0.355,1.144-0.861,1.397c-0.21,0.116-0.449,0.174-0.709,0.174l-11.762-0.014c-0.318,0-0.623-0.101-0.876-0.268
			C2763.741-665.096,2763.466-665.574,2763.466-666.117z M2726.015-666.276v-57.726c0-0.724,0.492-1.354,1.194-1.52
			c0.688-0.174,1.18-0.789,1.187-1.498l0.109-6.348c0.007-0.717,0.5-1.332,1.194-1.498l5.61-1.39c0.927-0.232,1.846,0.42,1.94,1.375
			l0.507,5.168c0.007,0.094,0.022,0.181,0.051,0.268c0.167,0.615,0.695,1.071,1.339,1.144l0.188,0.022h0.022l0.203,0.022
			c0.796,0.087,1.404,0.76,1.404,1.563v60.542c0,0.499-0.232,0.948-0.601,1.23c-0.275,0.217-0.615,0.347-0.992,0.34l-11.806-0.123
			c-0.282,0-0.55-0.08-0.775-0.217C2726.326-665.19,2726.015-665.697,2726.015-666.276z"/>
	</g>
	
		<text id="XMLID_131_" transform="matrix(1.0162 0 0 1 2828.6638 -659.544)" style="fill:#214A78; font-family:'Coolvetica-Regular'; font-size:118.916px;">Strad</text>
</g>
<g id="XMLID_253_">
	<g id="XMLID_255_">
		<path id="XMLID_261_" style="fill:#214A78;" d="M3417.343-515.898l0.516,33.855l-108.375,26.019
			c-2.953,0.709-5.78,1.881-8.333,3.526c-3.135,2.02-5.836,5.098-7.847,8.877c-1.028,1.931-1.521,4.102-2.546,6.034l-33.335,62.844
			v-95.119L3417.343-515.898z"/>
		<path id="XMLID_256_" style="fill:#214A78;" d="M3420.417-368.522h-0.934l-6.435,0.029c-0.304,0-0.579-0.08-0.811-0.224
			c-0.463-0.275-0.767-0.775-0.767-1.346l-0.029-73.434c0-0.984,0,0-0.217-0.955l-0.709-0.094c-0.478-0.072-0.861-0.427-0.955-0.898
			c-0.065-0.347-0.138-0.68-0.138-0.724c-0.051-0.753,0.116-3.011,0.565-4.314c0.094-0.275,0.268-0.499,0.492-0.659h0.007
			c0.232-0.174,0.514-0.275,0.818-0.275l1.527-0.007h0.007l2.417-0.007c0.731-0.232,0.369-1.339,0.362-2.106l-0.224-16.011
			c-0.015-1.006-0.956-1.737-1.94-1.498l-110.227,26.717c-0.869,0.21-1.383,1.1-1.136,1.954l1.028,3.598
			c0.015,0.043,0.029,0.087,0.043,0.13l0.514,1.354l0.007,0.029l1.94,5.052l0.043,0.116c0.231,0.601,0.818,1.006,1.469,1.006h5.769
			c0.159,0,0.319,0.022,0.47,0.072c0,0,0,0,0.007,0h0.007c0.63,0.21,1.086,0.796,1.086,1.498v59.406
			c0,0.507-0.246,0.955-0.623,1.245c-0.26,0.203-0.594,0.318-0.948,0.318h-5.776c-0.427,0-0.818-0.174-1.1-0.449
			c-0.29-0.29-0.47-0.688-0.463-1.129l0.253-49.069c0-0.709-0.478-1.325-1.158-1.52c-0.043-0.014-0.087-0.022-0.13-0.036
			c-0.413-0.13-0.912-0.311-1.484-0.572c-0.007,0-0.007-0.007-0.014-0.007c-1.65-0.746-3.865-2.164-6.196-4.821
			c-0.376-0.427-0.919-0.594-1.426-0.514c-0.449,0.065-0.861,0.333-1.115,0.775l-31.386,55.272l-0.014,0.029l-5.067,8.925
			c-0.145,0.261-0.21,0.528-0.203,0.796c0.007,0.398,0.167,0.774,0.434,1.057c0.282,0.297,0.68,0.485,1.136,0.492l161.228,0.166
			c0.861,0,1.571-0.702,1.571-1.571v-6.232C3421.994-367.827,3421.285-368.529,3420.417-368.522z M3374.626-370.071l-0.297-63.372
			c0-0.572-0.268-3.598,0.116-4.358v-0.007c0.043-0.087,0.087-0.138,0.145-0.159l0.181,0.007l0.47,0.014
			c0.782,0.014,1.506-0.55,1.556-1.325v-0.022l-0.007-6.696c0.029-0.594,0.376-1.585,0.905-1.94l0.007-0.007
			c0.072-0.043,0.152-0.08,0.231-0.101l0.268-0.043l0.029-0.007l6.153-1.122c0.717-0.188,1.44-0.065,1.788,0.42l0.007,0.007
			c0.116,0.166,0.188,0.369,0.203,0.622l-0.058,1.31v0.065l-0.203,4.415c0.014,0.34,0.145,0.659,0.355,0.912
			c0.217,0.268,0.521,0.463,0.876,0.543l0.47,0.109h0.007l0.463,0.101c0.717,0.159,1.231,0.796,1.231,1.527v69.12
			c0,0.608-0.355,1.144-0.861,1.397c-0.21,0.116-0.449,0.174-0.709,0.174l-11.762-0.014c-0.318,0-0.623-0.101-0.876-0.268
			C3374.901-369.05,3374.626-369.528,3374.626-370.071z M3337.175-370.23v-57.726c0-0.724,0.492-1.354,1.194-1.52
			c0.688-0.174,1.18-0.789,1.187-1.498l0.109-6.348c0.007-0.717,0.5-1.332,1.194-1.498l5.61-1.39c0.927-0.232,1.846,0.42,1.94,1.375
			l0.507,5.168c0.007,0.094,0.022,0.181,0.051,0.268c0.167,0.615,0.695,1.071,1.339,1.144l0.188,0.022h0.022l0.203,0.022
			c0.796,0.087,1.404,0.76,1.404,1.563v60.542c0,0.499-0.232,0.948-0.601,1.23c-0.275,0.217-0.615,0.347-0.992,0.34l-11.806-0.123
			c-0.282,0-0.55-0.08-0.775-0.217C3337.486-369.144,3337.175-369.651,3337.175-370.23z"/>
	</g>
	
		<text id="XMLID_254_" transform="matrix(0.8166 0 0 1 3439.876 -369.5283)" style="fill:#214A78; font-family:'JumperPERSONALUSEONLY-Extra-BoldItalic'; font-size:120.0709px;">Strad</text>
</g>
<g id="XMLID_149_">
	<g id="XMLID_151_">
		<path id="XMLID_252_" style="fill:#214A78;" d="M3417.343-221.315l0.516,33.855l-108.375,26.019
			c-2.953,0.709-5.78,1.881-8.333,3.526c-3.135,2.02-5.835,5.098-7.846,8.877c-1.028,1.931-1.521,4.102-2.546,6.034l-33.335,62.844
			v-95.119L3417.343-221.315z"/>
		<path id="XMLID_154_" style="fill:#214A78;" d="M3420.417-73.939h-0.934l-6.435,0.029c-0.304,0-0.579-0.08-0.811-0.224
			c-0.463-0.275-0.767-0.775-0.767-1.346l-0.029-73.434c0-0.984,0,0-0.217-0.955l-0.709-0.094c-0.478-0.072-0.861-0.427-0.955-0.898
			c-0.065-0.347-0.138-0.68-0.138-0.724c-0.051-0.753,0.116-3.011,0.565-4.314c0.094-0.275,0.268-0.499,0.492-0.659h0.007
			c0.231-0.174,0.514-0.275,0.818-0.275l1.527-0.007h0.007l2.418-0.007c0.731-0.232,0.369-1.339,0.362-2.106l-0.224-16.011
			c-0.014-1.006-0.955-1.737-1.94-1.498l-110.227,26.717c-0.869,0.21-1.383,1.1-1.136,1.954l1.028,3.598
			c0.014,0.043,0.029,0.087,0.043,0.13l0.514,1.354l0.007,0.029l1.94,5.052l0.043,0.116c0.232,0.601,0.818,1.006,1.469,1.006h5.769
			c0.159,0,0.318,0.022,0.47,0.072c0,0,0,0,0.007,0h0.007c0.63,0.21,1.086,0.796,1.086,1.498v59.406
			c0,0.507-0.246,0.955-0.623,1.245c-0.26,0.203-0.594,0.318-0.948,0.318h-5.776c-0.427,0-0.818-0.174-1.1-0.449
			c-0.29-0.29-0.47-0.688-0.463-1.129l0.253-49.069c0-0.709-0.478-1.325-1.158-1.52c-0.043-0.014-0.087-0.022-0.13-0.036
			c-0.413-0.13-0.912-0.311-1.484-0.572c-0.007,0-0.007-0.007-0.015-0.007c-1.65-0.746-3.865-2.164-6.196-4.821
			c-0.376-0.427-0.919-0.594-1.426-0.514c-0.449,0.065-0.861,0.333-1.115,0.775l-31.386,55.272l-0.015,0.029l-5.067,8.925
			c-0.145,0.261-0.21,0.528-0.203,0.796c0.007,0.398,0.167,0.774,0.434,1.057c0.282,0.297,0.68,0.485,1.136,0.492l161.228,0.166
			c0.861,0,1.571-0.702,1.571-1.571v-6.232C3421.995-73.244,3421.285-73.946,3420.417-73.939z M3374.626-75.488l-0.297-63.372
			c0-0.572-0.268-3.598,0.116-4.358v-0.007c0.043-0.087,0.087-0.138,0.145-0.159l0.181,0.007l0.47,0.014
			c0.782,0.014,1.506-0.55,1.556-1.325v-0.022l-0.007-6.696c0.029-0.594,0.376-1.585,0.905-1.94l0.007-0.007
			c0.073-0.043,0.152-0.08,0.232-0.101l0.268-0.043l0.029-0.007l6.153-1.122c0.717-0.188,1.44-0.065,1.788,0.42l0.007,0.007
			c0.116,0.166,0.188,0.369,0.203,0.622l-0.058,1.31v0.065l-0.203,4.415c0.014,0.34,0.145,0.659,0.354,0.912
			c0.217,0.268,0.521,0.463,0.876,0.543l0.47,0.109h0.007l0.463,0.101c0.717,0.159,1.231,0.796,1.231,1.527v69.12
			c0,0.608-0.355,1.144-0.862,1.397c-0.21,0.116-0.449,0.174-0.709,0.174l-11.762-0.014c-0.319,0-0.623-0.101-0.876-0.268
			C3374.901-74.467,3374.626-74.945,3374.626-75.488z M3337.175-75.647v-57.726c0-0.724,0.492-1.354,1.194-1.52
			c0.688-0.174,1.18-0.789,1.187-1.498l0.109-6.348c0.007-0.717,0.499-1.332,1.194-1.498l5.61-1.39
			c0.927-0.232,1.846,0.42,1.94,1.375l0.507,5.168c0.007,0.094,0.022,0.181,0.051,0.268c0.167,0.615,0.695,1.071,1.339,1.144
			l0.188,0.022h0.022l0.203,0.022c0.796,0.087,1.404,0.76,1.404,1.563v60.542c0,0.499-0.232,0.948-0.601,1.23
			c-0.275,0.217-0.615,0.347-0.992,0.34l-11.806-0.123c-0.282,0-0.55-0.08-0.774-0.217
			C3337.486-74.561,3337.175-75.068,3337.175-75.647z"/>
	</g>
	
		<text id="XMLID_150_" transform="matrix(1.0058 0 0 1 3439.876 -69.0302)" style="fill:#214A78; font-family:'UniNeue-Trial-Black'; font-size:109.6612px;">Strad</text>
</g>
<g id="XMLID_130_">
	<path id="XMLID_148_" style="fill:#214A78;" d="M3417.343-810.481l0.515,33.855l-108.375,26.019
		c-2.953,0.709-5.78,1.881-8.333,3.526c-3.135,2.02-5.835,5.098-7.847,8.877c-1.028,1.931-1.521,4.102-2.546,6.034l-33.335,62.844
		v-95.119L3417.343-810.481z"/>
	<path id="XMLID_140_" style="fill:#214A78;" d="M3420.417-663.105h-0.934l-6.435,0.029c-0.304,0-0.579-0.08-0.811-0.224
		c-0.463-0.275-0.767-0.775-0.767-1.346l-0.029-73.434c0-0.984,0,0-0.217-0.956l-0.709-0.094c-0.478-0.072-0.862-0.427-0.956-0.898
		c-0.065-0.347-0.137-0.68-0.137-0.724c-0.051-0.753,0.116-3.011,0.564-4.314c0.094-0.275,0.268-0.499,0.492-0.659h0.007
		c0.232-0.174,0.514-0.275,0.818-0.275l1.527-0.007h0.007l2.417-0.007c0.731-0.232,0.369-1.339,0.362-2.106l-0.224-16.011
		c-0.015-1.006-0.956-1.737-1.94-1.498l-110.227,26.717c-0.869,0.21-1.383,1.1-1.136,1.954l1.028,3.597
		c0.014,0.043,0.029,0.087,0.043,0.13l0.514,1.354l0.007,0.029l1.94,5.052l0.043,0.116c0.232,0.601,0.818,1.006,1.469,1.006h5.769
		c0.159,0,0.319,0.022,0.471,0.072c0,0,0,0,0.007,0h0.007c0.63,0.21,1.086,0.796,1.086,1.498v59.406
		c0,0.507-0.246,0.955-0.623,1.245c-0.26,0.203-0.594,0.318-0.948,0.318h-5.776c-0.427,0-0.818-0.174-1.1-0.449
		c-0.29-0.29-0.47-0.688-0.463-1.129l0.253-49.069c0-0.709-0.478-1.325-1.158-1.52c-0.043-0.015-0.087-0.022-0.13-0.036
		c-0.413-0.13-0.912-0.311-1.484-0.572c-0.007,0-0.007-0.007-0.014-0.007c-1.65-0.746-3.865-2.164-6.196-4.821
		c-0.376-0.427-0.919-0.594-1.426-0.514c-0.449,0.065-0.861,0.333-1.115,0.775l-31.386,55.272l-0.014,0.029l-5.067,8.925
		c-0.145,0.261-0.21,0.528-0.203,0.796c0.007,0.398,0.167,0.774,0.434,1.057c0.282,0.297,0.68,0.485,1.136,0.492l161.228,0.166
		c0.862,0,1.571-0.702,1.571-1.571v-6.232C3421.995-662.41,3421.285-663.112,3420.417-663.105z M3374.626-664.654l-0.297-63.372
		c0-0.572-0.268-3.597,0.116-4.358v-0.007c0.043-0.087,0.087-0.138,0.145-0.159l0.181,0.007l0.47,0.014
		c0.782,0.015,1.506-0.55,1.556-1.325v-0.022l-0.007-6.696c0.029-0.594,0.376-1.585,0.905-1.94l0.007-0.007
		c0.072-0.043,0.152-0.08,0.232-0.101l0.268-0.043l0.029-0.007l6.153-1.122c0.717-0.188,1.44-0.065,1.788,0.42l0.007,0.007
		c0.116,0.167,0.188,0.369,0.203,0.622l-0.058,1.31v0.065l-0.203,4.415c0.014,0.34,0.145,0.659,0.355,0.912
		c0.217,0.268,0.521,0.463,0.876,0.543l0.47,0.109h0.007l0.463,0.101c0.717,0.159,1.23,0.796,1.23,1.527v69.12
		c0,0.608-0.355,1.144-0.861,1.397c-0.21,0.116-0.449,0.174-0.709,0.174l-11.762-0.015c-0.318,0-0.623-0.101-0.876-0.268
		C3374.902-663.633,3374.626-664.111,3374.626-664.654z M3337.175-664.813v-57.726c0-0.724,0.492-1.354,1.194-1.52
		c0.688-0.174,1.18-0.789,1.187-1.498l0.109-6.348c0.007-0.717,0.5-1.332,1.194-1.498l5.61-1.39c0.927-0.232,1.846,0.42,1.94,1.375
		l0.507,5.168c0.007,0.094,0.022,0.181,0.051,0.268c0.167,0.615,0.695,1.071,1.339,1.144l0.188,0.022h0.022l0.203,0.022
		c0.796,0.087,1.404,0.76,1.404,1.563v60.542c0,0.499-0.232,0.948-0.601,1.23c-0.275,0.217-0.615,0.347-0.992,0.34l-11.806-0.123
		c-0.282,0-0.55-0.08-0.775-0.217C3337.486-663.727,3337.175-664.234,3337.175-664.813z"/>
</g>
<text id="XMLID_129_" transform="matrix(1.0162 0 0 1 3448.915 -659.544)" style="fill:#214A78; font-family:'THEBOLDFONT-FREEVERSION'; font-size:96.9049px;">Strad</text>
<g id="XMLID_285_">
	<path id="XMLID_299_" style="fill:#214A78;" d="M3250.387-538.238c-0.008-9.745-0.017-19.488-0.027-29.232
		c0-0.022-0.028-0.047-0.049-0.065c-0.018-0.02-0.04-0.034-0.1-0.082c-1.838,0.238-3.71,0.481-5.626,0.727
		c-0.151,2.939,0.069,5.859-0.129,8.826c-0.117,0-0.147,0.007-0.173,0c-0.105-0.034-0.213-0.06-0.313-0.107
		c-1.521-0.704-3.116-0.982-4.797-0.94c-3.775,0.094-6.776,2.165-8.115,5.78c-1.384,3.733-1.23,7.501,0.149,11.204
		c0.565,1.516,1.57,2.766,2.994,3.604c3.242,1.91,7.293,1.446,10.004-1.26c0.131-0.131,0.225-0.327,0.541-0.333v2.235h5.522
		C3250.406-538.013,3250.387-538.131,3250.387-538.238z M3244.535-544.482c-0.93,1.468-2.272,2.401-4.12,2.458
		c-1.783,0.054-3.224-0.93-3.725-2.642c-0.668-2.29-0.737-4.616,0.054-6.901c0.749-2.168,2.259-3.133,4.551-2.991
		c1.143,0.07,2.108,0.466,3.24,1.35V-544.482z"/>
	<path id="XMLID_296_" style="fill:#214A78;" d="M3227.319-551.851c0-0.615-0.063-1.223-0.183-1.826
		c-0.355-1.811-1.205-3.292-2.832-4.244c-1.072-0.627-2.252-0.989-3.48-1.106c-2.922-0.278-5.794-0.015-8.568,1.002
		c-0.409,0.149-0.843,0.266-1.211,0.548c0,0.724-0.015,1.421,0.005,2.116c0.022,0.71-0.092,1.429,0.055,2.18
		c0.566-0.221,1.079-0.434,1.6-0.625c2.099-0.766,4.249-1.118,6.481-0.769c0.56,0.087,1.079,0.278,1.518,0.643
		c0.997,0.826,0.963,1.9,0.789,3.061c-0.931,0-1.796-0.022-2.659,0.003c-1.789,0.052-3.554,0.278-5.263,0.839
		c-3.309,1.087-4.973,3.383-4.8,6.684c0.129,2.463,1.22,4.361,3.561,5.306c2.949,1.193,5.732,0.814,8.25-1.191
		c0.372-0.297,0.687-0.677,1.208-0.908v2.242h5.504c0.015-0.166,0.034-0.275,0.034-0.384
		C3227.326-542.804,3227.324-547.327,3227.319-551.851z M3221.594-544.353c-0.541,1.694-3.192,3.023-4.854,2.542
		c-0.905-0.263-1.563-0.692-1.836-1.619c-0.281-0.952-0.163-1.821,0.533-2.567c0.727-0.782,1.69-1.047,2.702-1.168
		c0.496-0.059,1.002-0.047,1.505-0.054c0.612-0.008,1.223-0.002,1.95-0.002V-544.353z"/>
	<path id="XMLID_295_" style="fill:#214A78;" d="M3160.516-538.964c0-1.662,0-3.27,0-4.957c0.621,0.264,1.178,0.503,1.737,0.739
		c1.873,0.79,3.832,1.156,5.858,1.18c0.674,0.008,1.333-0.114,1.97-0.33c0.708-0.24,1.227-0.668,1.289-1.475
		c0.059-0.769-0.357-1.393-1.16-1.756c-1.048-0.472-2.181-0.662-3.282-0.953c-1.186-0.314-2.35-0.668-3.458-1.214
		c-3.589-1.768-3.669-5.904-2.117-8.299c0.771-1.19,1.958-1.874,3.245-2.396c0.86-0.349,1.765-0.542,2.68-0.612
		c2.887-0.22,5.74-0.078,8.482,0.983c0.131,0.051,0.265,0.086,0.391,0.234c0,1.536,0,3.112,0,4.751
		c-1.175-0.536-2.305-0.997-3.51-1.236c-1.512-0.3-3.031-0.445-4.562-0.139c-0.109,0.022-0.223,0.03-0.327,0.066
		c-0.638,0.222-1.165,0.551-1.222,1.315c-0.05,0.655,0.26,1.13,0.999,1.488c0.732,0.355,1.525,0.52,2.311,0.704
		c1.381,0.323,2.77,0.618,4.084,1.171c1.18,0.496,2.213,1.173,2.86,2.328c1.238,2.209,1.015,6.119-1.621,8.095
		c-1.09,0.817-2.33,1.32-3.656,1.561C3168.165-537.108,3163.89-537.4,3160.516-538.964z"/>
	<path id="XMLID_294_" style="fill:#214A78;" d="M3178.44-558.587c0.956-0.168,1.932-0.03,3.004-0.119
		c0.069-1.718-0.052-3.442,0.183-5.246c1.825-0.366,3.691-0.74,5.661-1.135c0,2.15,0,4.228,0,6.388c1.889,0,3.688,0,5.553,0
		c0.13,1.516-0.043,2.946-0.021,4.46c-1.863,0-3.661,0-5.447,0c-0.135,0.345-0.082,0.625-0.083,0.897
		c-0.005,2.622-0.003,5.245-0.004,7.868c0,0.474,0.059,0.945,0.083,1.415c0.072,1.435,0.986,2.01,2.349,2.05
		c1.007,0.029,1.993-0.196,2.978-0.4c0.24,0.622,0.308,3.195,0.096,4.229c-2.48,0.647-5.001,1.022-7.556,0.363
		c-2.232-0.576-3.35-1.962-3.657-4.247c-0.175-1.308-0.088-2.616-0.1-3.923c-0.023-2.455,0-4.91,0.003-7.365c0-0.25,0-0.5,0-0.845
		c-1.012-0.111-2.005-0.015-2.982-0.063C3178.332-554.854,3178.296-557.597,3178.44-558.587z"/>
	<path id="XMLID_293_" style="fill:#214A78;" d="M3195.743-558.625c1.795,0,3.598,0,5.441,0c0.25,0.892,0.051,1.823,0.228,2.811
		c0.547-0.519,0.874-1.136,1.379-1.595c0.521-0.473,1.094-0.864,1.726-1.164c0.635-0.301,1.314-0.485,2.015-0.506
		c0.688-0.021,1.392-0.118,2.099,0.166c0,1.777,0,3.546,0,5.338c-0.442,0.027-0.823-0.037-1.207-0.087
		c-1.1-0.145-2.169-0.007-3.199,0.4c-1.196,0.473-2.048,1.316-2.68,2.616c0,4.141,0,8.429,0,12.761c-1.965,0-3.853,0-5.747,0
		C3195.628-538.44,3195.566-557.335,3195.743-558.625z"/>
	<g id="XMLID_286_">
		<path id="XMLID_292_" style="fill:#214A78;" d="M3152.406-573.759l0.119,7.837l-25.086,6.023
			c-0.684,0.164-1.338,0.435-1.929,0.816c-0.726,0.468-1.351,1.18-1.816,2.055c-0.238,0.447-0.352,0.949-0.589,1.397l-7.716,14.547
			v-22.017L3152.406-573.759z"/>
		<path id="XMLID_287_" style="fill:#214A78;" d="M3153.117-539.645h-0.216l-1.49,0.007c-0.07,0-0.134-0.018-0.188-0.052
			c-0.107-0.064-0.177-0.179-0.177-0.312L3151.039-557c0-0.228,0,0-0.05-0.221l-0.164-0.022c-0.111-0.017-0.199-0.099-0.221-0.208
			c-0.015-0.08-0.032-0.158-0.032-0.168c-0.012-0.174,0.027-0.697,0.131-0.999c0.022-0.064,0.062-0.116,0.114-0.152h0.001
			c0.054-0.04,0.119-0.064,0.189-0.064l0.354-0.002h0.002l0.56-0.002c0.169-0.054,0.085-0.31,0.084-0.488l-0.052-3.706
			c-0.003-0.233-0.221-0.402-0.449-0.347l-25.514,6.184c-0.201,0.049-0.32,0.255-0.263,0.452l0.238,0.833
			c0.003,0.01,0.007,0.02,0.01,0.03l0.119,0.313l0.002,0.007l0.449,1.169l0.01,0.027c0.054,0.139,0.189,0.233,0.34,0.233h1.335
			c0.037,0,0.074,0.005,0.109,0.017c0,0,0,0,0.002,0h0.002c0.146,0.049,0.251,0.184,0.251,0.347v13.751
			c0,0.117-0.057,0.221-0.144,0.288c-0.06,0.047-0.137,0.074-0.219,0.074h-1.337c-0.099,0-0.189-0.04-0.255-0.104
			c-0.067-0.067-0.109-0.159-0.107-0.261l0.059-11.358c0-0.164-0.111-0.307-0.268-0.352c-0.01-0.003-0.02-0.005-0.03-0.008
			c-0.095-0.03-0.211-0.072-0.344-0.132c-0.002,0-0.002-0.002-0.003-0.002c-0.382-0.173-0.895-0.501-1.434-1.116
			c-0.087-0.099-0.213-0.137-0.33-0.119c-0.104,0.015-0.199,0.077-0.258,0.179l-7.265,12.794l-0.003,0.007l-1.173,2.066
			c-0.033,0.06-0.049,0.122-0.047,0.184c0.002,0.092,0.039,0.179,0.101,0.245c0.065,0.069,0.157,0.112,0.263,0.114l37.32,0.039
			c0.199,0,0.364-0.163,0.364-0.364v-1.443C3153.482-539.484,3153.318-539.647,3153.117-539.645z M3142.518-540.004l-0.069-14.669
			c0-0.132-0.062-0.833,0.027-1.009v-0.002c0.01-0.02,0.02-0.032,0.033-0.037l0.042,0.002l0.109,0.003
			c0.181,0.003,0.348-0.127,0.36-0.307v-0.005l-0.002-1.55c0.007-0.137,0.087-0.367,0.209-0.449l0.002-0.002
			c0.017-0.01,0.035-0.018,0.054-0.023l0.062-0.01l0.007-0.002l1.424-0.26c0.166-0.044,0.333-0.015,0.414,0.097l0.002,0.002
			c0.027,0.039,0.044,0.085,0.047,0.144l-0.013,0.303v0.015l-0.047,1.022c0.003,0.079,0.034,0.153,0.082,0.211
			c0.05,0.062,0.121,0.107,0.203,0.126l0.109,0.025h0.002l0.107,0.023c0.166,0.037,0.285,0.184,0.285,0.354v15.999
			c0,0.141-0.082,0.265-0.199,0.323c-0.049,0.027-0.104,0.04-0.164,0.04l-2.723-0.003c-0.074,0-0.144-0.023-0.203-0.062
			C3142.582-539.768,3142.518-539.878,3142.518-540.004z M3133.849-540.041v-13.362c0-0.168,0.114-0.313,0.277-0.352
			c0.159-0.04,0.273-0.183,0.275-0.347l0.025-1.469c0.002-0.166,0.116-0.308,0.276-0.347l1.299-0.322
			c0.214-0.054,0.427,0.097,0.449,0.318l0.117,1.196c0.002,0.022,0.005,0.042,0.012,0.062c0.039,0.142,0.161,0.248,0.31,0.265
			l0.044,0.005h0.005l0.047,0.005c0.184,0.02,0.325,0.176,0.325,0.362v14.014c0,0.116-0.054,0.219-0.139,0.285
			c-0.064,0.05-0.142,0.08-0.229,0.079l-2.733-0.028c-0.065,0-0.127-0.018-0.179-0.05
			C3133.921-539.789,3133.849-539.907,3133.849-540.041z"/>
	</g>
</g>
</svg>
